<svg width="257" height="80" viewBox="0 0 257 80" fill="none" xmlns="http://www.w3.org/2000/svg">
<rect x="54" y="50" width="30" height="30" fill="white"/>
<path d="M125 50L142.321 80H107.679L125 50Z" fill="#D9D9D9"/>
<circle cx="181" cy="65" r="15" fill="#D9D9D9"/>
<path d="M13.472 28C12.1067 28 10.9013 27.7013 9.856 27.104C8.832 26.4853 8.02133 25.664 7.424 24.64C6.848 23.616 6.56 22.4747 6.56 21.216V10.08H0.48V5.6H17.984V10.08H11.936V21.696C11.936 22.1867 12.1067 22.6133 12.448 22.976C12.7893 23.3387 13.216 23.52 13.728 23.52H15.488V28H13.472ZM18.731 28V4.64H23.691V12.672C24.331 12.16 25.035 11.7867 25.803 11.552C26.571 11.3173 27.339 11.2 28.107 11.2C29.6003 11.2 30.859 11.52 31.883 12.16C32.9283 12.8 33.707 13.6747 34.219 14.784C34.7523 15.8933 35.019 17.152 35.019 18.56V28H30.059V18.752C30.059 18.1333 29.9097 17.5893 29.611 17.12C29.3337 16.6293 28.9497 16.2453 28.459 15.968C27.9897 15.6693 27.467 15.52 26.891 15.52C26.315 15.52 25.7817 15.6587 25.291 15.936C24.8003 16.2133 24.4057 16.5867 24.107 17.056C23.8297 17.5253 23.691 18.0587 23.691 18.656V28H18.731ZM47.307 28C45.451 28 43.819 27.6587 42.411 26.976C41.003 26.272 39.9043 25.312 39.115 24.096C38.347 22.8587 37.963 21.4293 37.963 19.808C37.963 18.016 38.3363 16.48 39.083 15.2C39.8297 13.92 40.8217 12.9387 42.059 12.256C43.3177 11.552 44.7043 11.2 46.219 11.2C47.947 11.2 49.387 11.5627 50.539 12.288C51.7123 13.0133 52.5977 14.0053 53.195 15.264C53.7923 16.5013 54.091 17.92 54.091 19.52C54.091 19.7973 54.0697 20.128 54.027 20.512C54.0057 20.8747 53.9737 21.1627 53.931 21.376H43.179C43.307 21.9307 43.5523 22.4 43.915 22.784C44.2777 23.168 44.7363 23.456 45.291 23.648C45.8457 23.8187 46.4643 23.904 47.147 23.904H52.171V28H47.307ZM43.051 18.272H49.291C49.2483 17.9307 49.1843 17.6 49.099 17.28C49.0137 16.96 48.875 16.6827 48.683 16.448C48.5123 16.192 48.3097 15.9787 48.075 15.808C47.8403 15.616 47.563 15.4667 47.243 15.36C46.9443 15.2533 46.603 15.2 46.219 15.2C45.7283 15.2 45.291 15.2853 44.907 15.456C44.523 15.6267 44.203 15.8613 43.947 16.16C43.691 16.4373 43.4883 16.768 43.339 17.152C43.211 17.5147 43.115 17.888 43.051 18.272ZM81.6737 34.976C80.3511 34.976 79.2204 34.7413 78.2818 34.272C77.3431 33.8027 76.6284 33.1413 76.1378 32.288C75.6471 31.4347 75.4018 30.4427 75.4018 29.312C75.4018 29.0773 75.4018 28.832 75.4018 28.576C75.4231 28.3413 75.4551 28.0853 75.4978 27.808C73.8551 27.7867 72.3618 27.4773 71.0178 26.88C69.6738 26.2827 68.5111 25.472 67.5298 24.448C66.5698 23.424 65.8231 22.24 65.2898 20.896C64.7778 19.5307 64.5218 18.08 64.5218 16.544C64.5218 14.9653 64.7884 13.4933 65.3218 12.128C65.8764 10.7627 66.6551 9.568 67.6578 8.544C68.6818 7.49867 69.9084 6.688 71.3378 6.112C72.7671 5.51467 74.3564 5.216 76.1058 5.216C77.8551 5.216 79.4444 5.49333 80.8738 6.048C82.3031 6.60267 83.5298 7.392 84.5538 8.416C85.5778 9.44 86.3564 10.624 86.8898 11.968C87.4444 13.312 87.7218 14.7733 87.7218 16.352V28.672C87.7218 29.8027 87.4978 30.848 87.0498 31.808C86.6231 32.768 85.9618 33.536 85.0658 34.112C84.1698 34.688 83.0391 34.976 81.6737 34.976ZM81.3858 30.4C81.7911 30.4 82.1004 30.2293 82.3138 29.888C82.5484 29.568 82.6658 29.1413 82.6658 28.608V23.392C82.0471 23.9253 81.5564 24.4587 81.1938 24.992C80.8524 25.5253 80.6071 26.0267 80.4578 26.496C80.3084 26.9653 80.2124 27.3813 80.1698 27.744C80.1484 28.1067 80.1378 28.3947 80.1378 28.608C80.1378 28.992 80.1911 29.312 80.2978 29.568C80.4044 29.8453 80.5538 30.048 80.7458 30.176C80.9591 30.3253 81.1724 30.4 81.3858 30.4ZM75.9138 23.264C76.1484 23.264 76.3618 23.2533 76.5538 23.232C76.7671 23.2107 76.9804 23.1787 77.1938 23.136C77.5778 22.56 78.0258 21.9947 78.5378 21.44C79.0498 20.864 79.6258 20.3093 80.2658 19.776C80.9058 19.2427 81.6098 18.7413 82.3778 18.272V16.192C82.3778 15.2747 82.2178 14.4213 81.8978 13.632C81.5991 12.8427 81.1618 12.16 80.5858 11.584C80.0311 11.008 79.3698 10.56 78.6018 10.24C77.8551 9.92 77.0338 9.76 76.1378 9.76C75.2418 9.76 74.4098 9.93067 73.6418 10.272C72.8951 10.592 72.2338 11.0613 71.6578 11.68C71.1031 12.2987 70.6658 13.024 70.3458 13.856C70.0471 14.6667 69.8978 15.552 69.8978 16.512C69.8978 17.472 70.0364 18.3573 70.3138 19.168C70.6124 19.9787 71.0284 20.6933 71.5618 21.312C72.1164 21.9093 72.7564 22.3787 73.4818 22.72C74.2284 23.0613 75.0391 23.2427 75.9138 23.264ZM90.9155 28V16.416C90.9155 14.9227 91.3422 13.7493 92.1955 12.896C93.0488 12.0427 94.2328 11.616 95.7475 11.616H100.516V15.648H96.9635C96.6648 15.648 96.4088 15.7547 96.1955 15.968C95.9822 16.16 95.8755 16.416 95.8755 16.736V28H90.9155ZM111.307 28C109.451 28 107.819 27.6587 106.411 26.976C105.003 26.272 103.904 25.312 103.115 24.096C102.347 22.8587 101.963 21.4293 101.963 19.808C101.963 18.016 102.336 16.48 103.083 15.2C103.83 13.92 104.822 12.9387 106.059 12.256C107.318 11.552 108.704 11.2 110.219 11.2C111.947 11.2 113.387 11.5627 114.539 12.288C115.712 13.0133 116.598 14.0053 117.195 15.264C117.792 16.5013 118.091 17.92 118.091 19.52C118.091 19.7973 118.07 20.128 118.027 20.512C118.006 20.8747 117.974 21.1627 117.931 21.376H107.179C107.307 21.9307 107.552 22.4 107.915 22.784C108.278 23.168 108.736 23.456 109.291 23.648C109.846 23.8187 110.464 23.904 111.147 23.904H116.171V28H111.307ZM107.051 18.272H113.291C113.248 17.9307 113.184 17.6 113.099 17.28C113.014 16.96 112.875 16.6827 112.683 16.448C112.512 16.192 112.31 15.9787 112.075 15.808C111.84 15.616 111.563 15.4667 111.243 15.36C110.944 15.2533 110.603 15.2 110.219 15.2C109.728 15.2 109.291 15.2853 108.907 15.456C108.523 15.6267 108.203 15.8613 107.947 16.16C107.691 16.4373 107.488 16.768 107.339 17.152C107.211 17.5147 107.115 17.888 107.051 18.272ZM129.557 28C127.701 28 126.069 27.6587 124.661 26.976C123.253 26.272 122.154 25.312 121.365 24.096C120.597 22.8587 120.213 21.4293 120.213 19.808C120.213 18.016 120.586 16.48 121.333 15.2C122.08 13.92 123.072 12.9387 124.309 12.256C125.568 11.552 126.954 11.2 128.469 11.2C130.197 11.2 131.637 11.5627 132.789 12.288C133.962 13.0133 134.848 14.0053 135.445 15.264C136.042 16.5013 136.341 17.92 136.341 19.52C136.341 19.7973 136.32 20.128 136.277 20.512C136.256 20.8747 136.224 21.1627 136.181 21.376H125.429C125.557 21.9307 125.802 22.4 126.165 22.784C126.528 23.168 126.986 23.456 127.541 23.648C128.096 23.8187 128.714 23.904 129.397 23.904H134.421V28H129.557ZM125.301 18.272H131.541C131.498 17.9307 131.434 17.6 131.349 17.28C131.264 16.96 131.125 16.6827 130.933 16.448C130.762 16.192 130.56 15.9787 130.325 15.808C130.09 15.616 129.813 15.4667 129.493 15.36C129.194 15.2533 128.853 15.2 128.469 15.2C127.978 15.2 127.541 15.2853 127.157 15.456C126.773 15.6267 126.453 15.8613 126.197 16.16C125.941 16.4373 125.738 16.768 125.589 17.152C125.461 17.5147 125.365 17.888 125.301 18.272ZM139.231 28V18.56C139.231 17.1947 139.562 15.9573 140.223 14.848C140.884 13.7387 141.823 12.8533 143.039 12.192C144.276 11.5307 145.738 11.2 147.423 11.2C149.13 11.2 150.58 11.5307 151.775 12.192C152.991 12.8533 153.919 13.7387 154.559 14.848C155.199 15.9573 155.519 17.1947 155.519 18.56V28H150.559V18.688C150.559 18.112 150.42 17.5893 150.143 17.12C149.866 16.6293 149.482 16.2453 148.991 15.968C148.522 15.6693 147.988 15.52 147.391 15.52C146.772 15.52 146.218 15.6693 145.727 15.968C145.258 16.2453 144.884 16.6293 144.607 17.12C144.33 17.5893 144.191 18.112 144.191 18.688V28H139.231ZM177.41 28C176.044 28 174.839 27.7013 173.794 27.104C172.77 26.4853 171.959 25.664 171.362 24.64C170.786 23.616 170.498 22.4747 170.498 21.216V10.08H164.418V5.6H181.922V10.08H175.874V21.696C175.874 22.1867 176.044 22.6133 176.386 22.976C176.727 23.3387 177.154 23.52 177.666 23.52H179.426V28H177.41ZM191.245 28C189.389 28 187.757 27.6587 186.349 26.976C184.941 26.272 183.842 25.312 183.053 24.096C182.285 22.8587 181.901 21.4293 181.901 19.808C181.901 18.016 182.274 16.48 183.021 15.2C183.767 13.92 184.759 12.9387 185.997 12.256C187.255 11.552 188.642 11.2 190.157 11.2C191.885 11.2 193.325 11.5627 194.477 12.288C195.65 13.0133 196.535 14.0053 197.133 15.264C197.73 16.5013 198.029 17.92 198.029 19.52C198.029 19.7973 198.007 20.128 197.965 20.512C197.943 20.8747 197.911 21.1627 197.869 21.376H187.117C187.245 21.9307 187.49 22.4 187.853 22.784C188.215 23.168 188.674 23.456 189.229 23.648C189.783 23.8187 190.402 23.904 191.085 23.904H196.109V28H191.245ZM186.989 18.272H193.229C193.186 17.9307 193.122 17.6 193.037 17.28C192.951 16.96 192.813 16.6827 192.621 16.448C192.45 16.192 192.247 15.9787 192.013 15.808C191.778 15.616 191.501 15.4667 191.181 15.36C190.882 15.2533 190.541 15.2 190.157 15.2C189.666 15.2 189.229 15.2853 188.845 15.456C188.461 15.6267 188.141 15.8613 187.885 16.16C187.629 16.4373 187.426 16.768 187.277 17.152C187.149 17.5147 187.053 17.888 186.989 18.272ZM207.51 28.384C206.06 28.384 204.78 28.0107 203.671 27.264C202.561 26.5173 201.697 25.5147 201.079 24.256C200.46 22.976 200.151 21.536 200.151 19.936C200.151 18.272 200.513 16.7893 201.239 15.488C201.964 14.1653 202.988 13.12 204.311 12.352C205.655 11.584 207.233 11.2 209.047 11.2C210.881 11.2 212.439 11.584 213.719 12.352C215.02 13.0987 216.012 14.1333 216.694 15.456C217.399 16.7573 217.751 18.2187 217.751 19.84V28H212.887V25.376H212.759C212.46 25.952 212.076 26.4747 211.607 26.944C211.137 27.392 210.561 27.744 209.879 28C209.217 28.256 208.428 28.384 207.51 28.384ZM208.983 24.096C209.729 24.096 210.38 23.9147 210.935 23.552C211.511 23.168 211.948 22.6453 212.247 21.984C212.545 21.3227 212.695 20.5867 212.695 19.776C212.695 18.9867 212.545 18.272 212.247 17.632C211.948 16.992 211.511 16.4907 210.935 16.128C210.38 15.744 209.729 15.552 208.983 15.552C208.215 15.552 207.543 15.744 206.967 16.128C206.391 16.4907 205.953 16.992 205.655 17.632C205.356 18.272 205.207 18.9867 205.207 19.776C205.207 20.5867 205.356 21.3227 205.655 21.984C205.953 22.6453 206.391 23.168 206.967 23.552C207.543 23.9147 208.215 24.096 208.983 24.096ZM221.419 28V18.304C221.419 16.96 221.728 15.7547 222.347 14.688C222.987 13.6 223.893 12.7467 225.067 12.128C226.24 11.5093 227.637 11.2 229.259 11.2C230.069 11.2 230.816 11.296 231.499 11.488C232.181 11.6587 232.8 11.904 233.355 12.224C233.931 12.5227 234.421 12.8853 234.827 13.312H234.891C235.317 12.8853 235.808 12.5227 236.363 12.224C236.939 11.904 237.568 11.6587 238.251 11.488C238.955 11.296 239.712 11.2 240.523 11.2C242.144 11.2 243.541 11.5093 244.715 12.128C245.888 12.7467 246.795 13.6 247.435 14.688C248.075 15.7547 248.395 16.96 248.395 18.304V28H243.403V18.464C243.403 17.9307 243.264 17.4507 242.987 17.024C242.731 16.576 242.379 16.2133 241.931 15.936C241.483 15.6587 240.971 15.52 240.395 15.52C239.819 15.52 239.296 15.6587 238.827 15.936C238.379 16.2133 238.027 16.576 237.771 17.024C237.515 17.4507 237.387 17.9307 237.387 18.464V28H232.427V18.464C232.427 17.9307 232.288 17.4507 232.011 17.024C231.755 16.576 231.392 16.2133 230.923 15.936C230.475 15.6587 229.963 15.52 229.387 15.52C228.811 15.52 228.288 15.6587 227.819 15.936C227.371 16.2133 227.019 16.576 226.763 17.024C226.507 17.4507 226.379 17.9307 226.379 18.464V28H221.419Z" fill="white"/>
</svg>
