<svg width="96" height="96" viewBox="0 0 96 96" fill="none" xmlns="http://www.w3.org/2000/svg">
<path d="M69 24V21C69 15.4305 66.7875 10.089 62.8492 6.15076C58.911 2.21249 53.5695 0 48 0C42.4305 0 37.089 2.21249 33.1508 6.15076C29.2125 10.089 27 15.4305 27 21V24H6V84C6 87.1826 7.26428 90.2348 9.51472 92.4853C11.7652 94.7357 14.8174 96 18 96H78C81.1826 96 84.2348 94.7357 86.4853 92.4853C88.7357 90.2348 90 87.1826 90 84V24H69ZM48 6C51.9782 6 55.7936 7.58035 58.6066 10.3934C61.4196 13.2064 63 17.0218 63 21V24H33V21C33 17.0218 34.5804 13.2064 37.3934 10.3934C40.2064 7.58035 44.0218 6 48 6ZM48 47.958C57.984 37.692 82.95 55.656 48 78.75C13.05 55.65 38.016 37.692 48 47.958Z" fill="#3A5A40"/>
</svg>
