<svg width="96" height="96" viewBox="0 0 96 96" fill="none" xmlns="http://www.w3.org/2000/svg">
<path d="M87.2799 61.68L77.2799 79C75.3199 82.44 71.6799 84.24 67.9999 84H59.9999V92L49.9999 74L59.9999 56V64H71.2799L62.3999 48.6L79.7199 38.6L86.9199 51.08C88.9999 54.16 89.2799 58.28 87.2799 61.68ZM36.8399 12.24H56.8399C60.7599 12.24 64.1599 14.52 65.7999 17.8L69.7999 24.76L76.7199 20.76L66.1599 38.4L45.5599 38.76L52.4799 34.76L46.8399 24.96L37.9999 40.36L20.6399 30.36L27.8399 17.88C29.4799 14.56 32.8799 12.24 36.8399 12.24ZM20.1999 79.04L10.1999 61.72C8.23989 58.32 8.51989 54.24 10.5599 51.16L14.5599 44.24L7.63989 40.24L28.1999 40.56L38.7999 58.24L31.8799 54.24L26.2399 64H43.9999V84H29.5999C27.7259 84.1356 25.8515 83.7427 24.1897 82.8658C22.528 81.989 21.1457 80.6635 20.1999 79.04Z" fill="#588157"/>
</svg>
