<svg width="96" height="96" viewBox="0 0 96 96" fill="none" xmlns="http://www.w3.org/2000/svg">
<path d="M79.424 35.712L70.848 86.912C70.7136 87.6466 70.3266 88.311 69.7538 88.7902C69.1811 89.2695 68.4588 89.5333 67.712 89.536H28.288C27.5413 89.5333 26.819 89.2695 26.2463 88.7902C25.6736 88.311 25.2865 87.6466 25.152 86.912L16.576 35.712C16.5022 35.2563 16.5278 34.7901 16.6511 34.3452C16.7744 33.9004 16.9925 33.4874 17.2904 33.1348C17.5883 32.7822 17.959 32.4982 18.377 32.3023C18.795 32.1064 19.2504 32.0033 19.712 32H76.224C76.6911 31.994 77.1537 32.0903 77.5796 32.2821C78.0054 32.4739 78.3841 32.7566 78.689 33.1104C78.994 33.4641 79.2178 33.8803 79.3448 34.3298C79.4718 34.7792 79.4988 35.251 79.424 35.712ZM83.2 22.4C83.2 23.2487 82.8629 24.0626 82.2628 24.6628C81.6627 25.2629 80.8487 25.6 80 25.6H16C15.1514 25.6 14.3374 25.2629 13.7373 24.6628C13.1372 24.0626 12.8 23.2487 12.8 22.4C12.8 21.5513 13.1372 20.7374 13.7373 20.1373C14.3374 19.5372 15.1514 19.2 16 19.2H32V9.60002C32 8.75133 32.3372 7.9374 32.9373 7.33728C33.5374 6.73717 34.3514 6.40002 35.2 6.40002H60.8C61.6487 6.40002 62.4627 6.73717 63.0628 7.33728C63.6629 7.9374 64 8.75133 64 9.60002V19.2H80C80.8487 19.2 81.6627 19.5372 82.2628 20.1373C82.8629 20.7374 83.2 21.5513 83.2 22.4ZM57.6 19.2V12.8H38.4V19.2H57.6Z" fill="#344E41"/>
</svg>
